Coordinates
version=1
nRows=16
nColumns=40
inDegrees=yes

Units are S.I. units (second, meters, Newtons, ...)
Angles are in degrees.

endheader
time	pelvis_tilt	pelvis_list	pelvis_rotation	pelvis_tx	pelvis_ty	pelvis_tz	hip_flexion_r	hip_adduction_r	hip_rotation_r	knee_angle_r	knee_angle_r_beta	ankle_angle_r	subtalar_angle_r	mtp_angle_r	hip_flexion_l	hip_adduction_l	hip_rotation_l	knee_angle_l	knee_angle_l_beta	ankle_angle_l	subtalar_angle_l	mtp_angle_l	lumbar_extension	lumbar_bending	lumbar_rotation	arm_flex_r	arm_add_r	arm_rot_r	elbow_flex_r	pro_sup_r	wrist_flex_r	wrist_dev_r	arm_flex_l	arm_add_l	arm_rot_l	elbow_flex_l	pro_sup_l	wrist_flex_l	wrist_dev_l
      0.00000000	     -6.38050002	      2.72954445	     -7.19502955	     -0.87569640	      0.85766827	      1.48164493	     -0.57350442	    -12.25542415	    -11.09219963	    -50.22770814	     -0.87663888	    -25.05884215	    -17.33683245	     22.63442110	     33.31831801	     -6.75761780	     11.24954912	    -36.23286887	     -0.63238286	      9.06659185	     16.07235062	      5.11444521	     -2.00312163	     -1.74758808	      4.63014687	     -2.48795013	    -12.84931866	    -18.23656347	     53.83818479	     89.95437384	      0.00000000	      0.00000000	     -9.95237892	      8.75657596	     30.09531360	     13.76451419	     89.95437384	      0.00000000	      0.00000000
      0.01000000	     -6.13148217	      2.58385498	     -6.43111362	     -0.86351543	      0.85960535	      1.48234695	      0.96904925	    -11.71913015	     -9.92767164	    -52.90902973	     -0.92343677	    -24.12967684	    -17.70903350	     22.12970148	     31.99213588	     -7.04798006	     10.66243276	    -36.08020162	     -0.62971831	      9.94223387	     15.97738816	      5.03440171	     -2.35510760	     -1.77084957	      3.84522317	     -2.38056792	    -12.45139786	    -18.08707978	     52.57818269	     89.95437384	      0.00000000	      0.00000000	     -9.25546864	      8.60374528	     29.60049207	     14.05685428	     89.95437384	      0.00000000	      0.00000000
      0.02000000	     -6.11950031	      2.53339928	     -5.77225518	     -0.85135355	      0.86101914	      1.48289208	      3.00623674	    -11.41997367	     -8.99676454	    -55.81741121	     -0.97419761	    -22.07205017	    -17.28692177	     21.48865940	     30.93817065	     -7.33033584	     10.20635395	    -35.89580969	     -0.62650007	     10.41671741	     15.80732036	      4.99688050	     -2.38188149	     -1.82501829	      3.12621240	     -2.42903852	    -12.08566680	    -17.92675017	     51.43648240	     89.95437384	      0.00000000	      0.00000000	     -8.88778184	      8.41184584	     28.63448076	     14.95222687	     89.95437384	      0.00000000	      0.00000000
      0.03000000	     -6.07197792	      2.29866052	     -5.13632967	     -0.83938354	      0.86267323	      1.48384894	      5.02414312	    -10.91751044	     -8.34213184	    -58.44562932	     -1.02006867	    -20.00743330	    -16.94695077	     20.91430303	     29.80324283	     -7.35001581	      9.68233173	    -35.71260574	     -0.62330255	     10.88835145	     15.47413533	      4.87573890	     -2.48294054	     -1.71303507	      2.48090852	     -2.50939562	    -11.68984306	    -17.83317645	     50.26561014	     89.95437384	      0.00000000	      0.00000000	     -8.45211474	      8.28882172	     27.45214338	     15.98437017	     89.95437384	      0.00000000	      0.00000000
      0.04000000	     -5.85019234	      2.00594815	     -4.42149148	     -0.82715853	      0.86474779	      1.48449557	      6.71436864	    -10.25601969	     -7.73054172	    -60.53274741	     -1.05649575	    -18.38821370	    -16.94707016	     20.27109050	     28.32141135	     -7.32377216	      9.19096968	    -35.23146741	     -0.61490511	     11.43441209	     14.80138157	      4.65859395	     -2.75621731	     -1.52523113	      1.67185255	     -2.49606646	    -11.31972868	    -17.72109651	     48.93695339	     89.95437384	      0.00000000	      0.00000000	     -7.85816384	      8.13670560	     26.60190413	     16.79728534	     89.95437384	      0.00000000	      0.00000000
      0.05000000	     -5.73772538	      1.78954005	     -3.76194140	     -0.81499399	      0.86650063	      1.48503113	      8.63725997	     -9.84681851	     -7.39730405	    -62.59491406	     -1.09248735	    -16.68229948	    -16.91321444	     19.68018217	     27.00250120	     -7.32208373	      8.81035653	    -34.78084457	     -0.60704025	     11.76144604	     14.24841203	      4.43141038	     -2.87971711	     -1.38025766	      0.94793833	     -2.59644681	    -11.01881195	    -17.57995814	     47.69831574	     89.95437384	      0.00000000	      0.00000000	     -7.44567835	      8.01887784	     25.35488081	     18.06130431	     89.95437384	      0.00000000	      0.00000000
      0.06000000	     -5.66656659	      1.58189563	     -3.05696255	     -0.80285523	      0.86811672	      1.48566189	     10.61406670	     -9.45414036	     -7.17787119	    -64.42583630	     -1.12444297	    -14.96256047	    -16.93664142	     19.19852408	     25.71104010	     -7.30725813	      8.37802404	    -34.29729809	     -0.59860078	     12.14556535	     13.70523515	      4.17719014	     -2.95167611	     -1.27671123	      0.19540313	     -2.80402804	    -10.69936468	    -17.39867499	     46.53382585	     89.95437384	      0.00000000	      0.00000000	     -7.02049661	      8.01109033	     23.93221217	     19.39366676	     89.95437384	      0.00000000	      0.00000000
      0.07000000	     -5.60333476	      1.29130051	     -2.39542931	     -0.79089770	      0.86974389	      1.48644052	     12.57397462	     -8.90052512	     -6.94704602	    -65.89610450	     -1.15010399	    -13.37507559	    -17.07149402	     18.76244881	     24.41196208	     -7.20604784	      7.79976587	    -33.76747254	     -0.58935358	     12.47487753	     13.19038823	      3.94957207	     -3.01307042	     -1.08122204	     -0.49833628	     -2.97147740	    -10.41023246	    -17.26689645	     45.33544044	     89.95437384	      0.00000000	      0.00000000	     -6.52000159	      8.01852998	     22.69676594	     20.75098500	     89.95437384	      0.00000000	      0.00000000
      0.08000000	     -5.55622282	      0.98617604	     -1.73097468	     -0.77881166	      0.87126014	      1.48709277	     14.50416905	     -8.43229920	     -6.86828071	    -67.04964819	     -1.17023712	    -11.76637470	    -17.14728083	     18.33034130	     23.13023366	     -7.08120256	      7.20687403	    -33.25537470	     -0.58041578	     12.89124009	     12.69407570	      3.72090140	     -3.04492558	     -0.85103879	     -1.17577068	     -3.22011579	    -10.15473813	    -17.13533270	     44.15582703	     89.95437384	      0.00000000	      0.00000000	     -6.03058857	      8.03785654	     21.50464970	     22.20986199	     89.95437384	      0.00000000	      0.00000000
      0.09000000	     -5.49009120	      0.92066557	     -0.94910289	     -0.76664836	      0.87256537	      1.48737480	     16.38337088	     -8.43223515	     -7.03082742	    -67.98501537	     -1.18656236	    -10.04198193	    -17.07838707	     18.60824502	     21.80494011	     -7.28765861	      6.52964882	    -32.64588379	     -0.56977816	     13.19257795	     12.70340744	      3.29644988	     -3.05813015	     -0.87796953	     -1.91441779	     -3.57325385	     -9.90616890	    -17.02330778	     43.07897187	     89.95437384	      0.00000000	      0.00000000	     -5.84698342	      8.40437361	     18.71020100	     24.25247661	     89.95437384	      0.00000000	      0.00000000
      0.10000000	     -5.46958670	      0.55950222	     -0.32285679	     -0.75467529	      0.87395849	      1.48814683	     18.25605761	     -7.90577058	     -6.99325766	    -68.48285422	     -1.19525129	     -8.71751464	    -17.22355897	     18.28068645	     20.53269353	     -7.00022170	      6.09176240	    -32.03874642	     -0.55918161	     13.56303829	     12.22479415	      3.09260153	     -3.06119353	     -0.58376638	     -2.51519349	     -3.84988706	     -9.65563591	    -16.98212869	     41.89439335	     89.95437384	      0.00000000	      0.00000000	     -5.00951258	      8.38230206	     18.24099174	     25.33424779	     89.95437384	      0.00000000	      0.00000000
      0.11000000	     -5.31049000	      0.36790495	      0.49289458	     -0.74266957	      0.87533957	      1.48847034	     19.87015108	     -7.79477469	     -7.27282493	    -68.71068058	     -1.19922761	     -6.99416639	    -17.05914663	     18.70749167	     19.08086627	     -6.94814235	      5.45798619	    -31.37631390	     -0.54761998	     13.83896246	     11.78431847	      2.36365334	     -3.22750706	     -0.46812263	     -3.34039577	     -4.11307755	     -9.40495852	    -16.88905115	     40.73566349	     89.95437384	      0.00000000	      0.00000000	     -4.63900396	      8.64333410	     16.77220041	     27.34090607	     89.95437384	      0.00000000	      0.00000000
      0.12000000	     -5.31396426	      0.12550724	      1.10894801	     -0.73081902	      0.87643619	      1.48918209	     21.66050884	     -7.56417762	     -7.41898804	    -68.62062638	     -1.19765587	     -5.40145285	    -17.15899936	     18.34591029	     17.87764758	     -6.65166694	      5.20272036	    -30.83105223	     -0.53810337	     14.08821703	     11.08456466	      2.06905777	     -3.21313545	     -0.31224946	     -3.92010425	     -4.38266489	     -9.14790274	    -16.94434636	     39.51166513	     89.95437384	      0.00000000	      0.00000000	     -4.08345364	      8.70129171	     16.34635025	     29.22471046	     89.95437384	      0.00000000	      0.00000000
      0.13000000	     -5.28458466	     -0.14659821	      1.75614345	     -0.71899342	      0.87740493	      1.48989001	     23.33122131	     -7.29719488	     -7.55906150	    -68.19776787	     -1.19027559	     -3.85898383	    -17.09758268	     17.95578567	     16.64534879	     -6.32034586	      4.92920610	    -30.22743068	     -0.52756819	     14.28302600	     10.41296847	      1.81159812	     -3.25201322	     -0.11853019	     -4.56250785	     -4.64761471	     -8.88712196	    -16.97421144	     38.34245791	     89.95437384	      0.00000000	      0.00000000	     -3.65152406	      8.83575745	     15.84139129	     31.32203946	     89.95437384	      0.00000000	      0.00000000
      0.14000000	     -5.34234026	     -0.40876021	      2.31506884	     -0.70699620	      0.87810638	      1.49048769	     25.05490302	     -7.22644543	     -7.88865705	    -67.51468753	     -1.17835359	     -2.74077973	    -17.03649384	     17.57515213	     15.51741849	     -5.92800693	      4.99961883	    -29.62976260	     -0.51713691	     14.51956098	      9.94995995	      1.64839423	     -3.15434686	      0.11077062	     -4.99001043	     -5.15942037	     -8.74400449	    -17.00367002	     37.44631085	     89.95437384	      0.00000000	      0.00000000	     -3.04960672	      8.85307255	     15.52218914	     33.16668205	     89.95437384	      0.00000000	      0.00000000
      0.15000000	     -4.81924141	     -0.57370541	      3.03030923	     -0.69495379	      0.87953471	      1.49136001	     25.85398974	     -7.10417280	     -8.15514423	    -66.29416325	     -1.15705142	     -1.05436648	    -16.95824497	     17.77932028	     13.67747889	     -5.63684977	      4.64448964	    -28.92273532	     -0.50479696	     14.68357320	      8.84805590	      0.94660365	     -3.80428238	      0.17157042	     -5.80026339	     -5.18406708	     -8.40892025	    -17.09150025	     36.13473671	     89.95437384	      0.00000000	      0.00000000	     -2.98006091	      9.27785218	     14.67837331	     36.11933931	     89.95437384	      0.00000000	      0.00000000
